<svg height='100px' width='100px'  fill="#000000" xmlns="http://www.w3.org/2000/svg" viewBox="0 0 32 32" x="0px" y="0px"><title>Signal</title><g data-name="Mail Box"><path d="M19.4,20.66a1,1,0,0,1-.68-1.73,4,4,0,0,0,0-5.86,1,1,0,1,1,1.36-1.46,6,6,0,0,1,0,8.79A1,1,0,0,1,19.4,20.66Z"></path><path d="M12.6,20.66a1,1,0,0,1-.68-.27,6,6,0,0,1,0-8.79,1,1,0,1,1,1.36,1.46,4,4,0,0,0,0,5.86,1,1,0,0,1-.68,1.73Z"></path><path d="M22.12,23.59a1,1,0,0,1-.68-1.73,8,8,0,0,0,0-11.71A1,1,0,1,1,22.8,8.68a10,10,0,0,1,0,14.65A1,1,0,0,1,22.12,23.59Z"></path><path d="M9.88,23.59a1,1,0,0,1-.68-.27,10,10,0,0,1,0-14.65,1,1,0,1,1,1.36,1.47,8,8,0,0,0,0,11.71,1,1,0,0,1-.68,1.73Z"></path><path d="M24.84,26.52a1,1,0,0,1-.68-1.74,12,12,0,0,0,0-17.57,1,1,0,1,1,1.36-1.47,14,14,0,0,1,0,20.51A1,1,0,0,1,24.84,26.52Z"></path><path d="M7.16,26.52a1,1,0,0,1-.68-.26,14,14,0,0,1,0-20.51A1,1,0,1,1,7.84,7.22a12,12,0,0,0,0,17.57,1,1,0,0,1-.68,1.74Z"></path><circle cx="16" cy="16" r="2"></circle></g></svg>