<svg height='100px' width='100px'  fill="#000000" xmlns="http://www.w3.org/2000/svg" xmlns:xlink="http://www.w3.org/1999/xlink" version="1.1" x="0px" y="0px" viewBox="0 0 64 64" enable-background="new 0 0 64 64" xml:space="preserve"><g><path d="M57,21h-5H7c-1.16,0-2.2-0.49-2.93-1.28C4.04,19.7,4.02,19.67,4,19.64V54c0,1.65,1.35,3,3,3h50c1.65,0,3-1.35,3-3V24   C60,22.35,58.65,21,57,21z M47,43c-2.208,0-4-1.792-4-4s1.792-4,4-4s4,1.792,4,4S49.208,43,47,43z"></path><path d="M5.3,18.05c0.16,0.26,0.39,0.49,0.65,0.65C5.97,18.71,5.98,18.72,6,18.73C6.29,18.9,6.64,19,7,19h43h2V8   c0-0.29-0.13-0.58-0.36-0.77c-0.22-0.19-0.52-0.26-0.81-0.22L7.32,14.58C4.7188,15.0781,5,17,5,17C5,17.38,5.11,17.74,5.3,18.05z"></path></g></svg>