<svg height='100px' width='100px'  fill="#000000" xmlns="http://www.w3.org/2000/svg" xmlns:xlink="http://www.w3.org/1999/xlink" xml:space="preserve" version="1.0" style="shape-rendering:geometricPrecision;text-rendering:geometricPrecision;image-rendering:optimizeQuality;" viewBox="0 0 10000 10000" x="0px" y="0px" fill-rule="evenodd" clip-rule="evenodd"><defs><style type="text/css">
   
    .fil0 {fill:#000000;fill-rule:nonzero}
   
  </style></defs><g><path class="fil0" d="M5000 4890c1374,0 2733,988 2733,2442l0 1067c0,54 -45,99 -100,99l-5267 0c-54,0 -99,-45 -99,-99l0 -1067c0,-1454 1359,-2442 2733,-2442z"></path><path class="fil0" d="M4919 1502c878,0 1591,713 1591,1591 0,879 -713,1591 -1591,1591 -879,0 -1591,-712 -1591,-1591 0,-878 713,-1591 1591,-1591z"></path></g></svg>